Coordinates
version=1
nRows=26
nColumns=24
inDegrees=yes

Units are S.I. units (second, meters, Newtons, ...)
Angles are in degrees.

endheader
time	pelvis_tilt	pelvis_list	pelvis_rotation	pelvis_tx	pelvis_ty	pelvis_tz	hip_flexion_r	hip_adduction_r	hip_rotation_r	knee_angle_r	ankle_angle_r	subtalar_angle_r	mtp_angle_r	hip_flexion_l	hip_adduction_l	hip_rotation_l	knee_angle_l	ankle_angle_l	subtalar_angle_l	mtp_angle_l	lumbar_extension	lumbar_bending	lumbar_rotation
      1.56000000	     60.47210863	     -0.93325482	     -4.66693572	      0.83082538	      1.06291179	     -0.23088204	     18.63653680	     -6.38966059	      4.10957969	    -13.74032647	     -3.52135301	     10.25951512	      0.00000000	      9.55355267	     -4.15227535	     -8.49438909	    -66.36265041	      1.01873749	     -4.59284309	      0.00000000	      0.00000000	      0.00000000	      0.00000000
      1.57000000	     60.47367000	     -0.93228597	     -4.66663959	      0.83081865	      1.06291418	     -0.23088665	     18.63930073	     -6.38553317	      4.11307821	    -13.72626589	     -3.53458974	     10.24302383	      0.00000000	      9.55243420	     -4.15183268	     -8.49135468	    -66.36202841	      1.02098348	     -4.59568918	      0.00000000	      0.00000000	      0.00000000	      0.00000000
      1.58000000	     60.47503713	     -0.93064967	     -4.66675926	      0.83080939	      1.06292449	     -0.23088762	     18.64324901	     -6.38161851	      4.11787214	    -13.70970975	     -3.55107497	     10.22265388	      0.00000000	      9.55205283	     -4.15148108	     -8.48889491	    -66.36181764	      1.02462662	     -4.59825021	      0.00000000	      0.00000000	      0.00000000	      0.00000000
      1.59000000	     60.47621575	     -0.92854346	     -4.66739382	      0.83080097	      1.06293160	     -0.23088895	     18.64898524	     -6.37787845	      4.12379583	    -13.68932763	     -3.57040569	     10.19993711	      0.00000000	      9.55243324	     -4.15067071	     -8.48719392	    -66.36187534	      1.02920689	     -4.60043929	      0.00000000	      0.00000000	      0.00000000	      0.00000000
      1.60000000	     60.47715774	     -0.92589843	     -4.66869654	      0.83079192	      1.06292391	     -0.23089212	     18.65648654	     -6.37428045	      4.13085127	    -13.66410635	     -3.59186955	     10.17725357	      0.00000000	      9.55359830	     -4.14901284	     -8.48606415	    -66.36232229	      1.03424103	     -4.60271122	      0.00000000	      0.00000000	      0.00000000	      0.00000000
      1.61000000	     60.47805714	     -0.92254994	     -4.67074176	      0.83077962	      1.06290746	     -0.23089425	     18.66508289	     -6.37105282	      4.13925169	    -13.63383484	     -3.61466779	     10.15737470	      0.00000000	      9.55572634	     -4.14638820	     -8.48509557	    -66.36330189	      1.03928662	     -4.60580959	      0.00000000	      0.00000000	      0.00000000	      0.00000000
      1.62000000	     60.47915845	     -0.91856097	     -4.67325920	      0.83076705	      1.06289865	     -0.23089482	     18.67389087	     -6.36870501	      4.14934994	    -13.59926366	     -3.63804209	     10.14282158	      0.00000000	      9.55869866	     -4.14285426	     -8.48385956	    -66.36476820	      1.04389742	     -4.61035366	      0.00000000	      0.00000000	      0.00000000	      0.00000000
      1.63000000	     60.48034574	     -0.91441168	     -4.67547445	      0.83076062	      1.06289976	     -0.23089345	     18.68240633	     -6.36775402	      4.16141066	    -13.56185393	     -3.66124379	     10.13522668	      0.00000000	      9.56152479	     -4.13845376	     -8.48203668	    -66.36648654	      1.04758441	     -4.61649217	      0.00000000	      0.00000000	      0.00000000	      0.00000000
      1.64000000	     60.48145215	     -0.91072188	     -4.67642029	      0.83076151	      1.06289796	     -0.23088771	     18.69090967	     -6.36845246	      4.17529930	    -13.52323024	     -3.68338597	     10.13487916	      0.00000000	      9.56267917	     -4.13334067	     -8.47942959	    -66.36811145	      1.04987352	     -4.62379010	      0.00000000	      0.00000000	      0.00000000	      0.00000000
      1.65000000	     60.48284638	     -0.90785640	     -4.67556043	      0.83076445	      1.06288655	     -0.23087762	     18.70019344	     -6.37073729	      4.19025102	    -13.48474587	     -3.70334954	     10.14062003	      0.00000000	      9.56124019	     -4.12799063	     -8.47605462	    -66.36924363	      1.05039950	     -4.63132233	      0.00000000	      0.00000000	      0.00000000	      0.00000000
      1.66000000	     60.48522830	     -0.90577503	     -4.67319288	      0.83076568	      1.06287551	     -0.23086905	     18.71072263	     -6.37428203	      4.20490516	    -13.44737043	     -3.71990605	     10.15018640	      0.00000000	      9.55763087	     -4.12304513	     -8.47227695	    -66.36953894	      1.04897683	     -4.63789409	      0.00000000	      0.00000000	      0.00000000	      0.00000000
      1.67000000	     60.48868134	     -0.90412680	     -4.67029696	      0.83076673	      1.06287513	     -0.23087060	     18.72205323	     -6.37854318	      4.21767740	    -13.41163967	     -3.73204137	     10.16090301	      0.00000000	      9.55316724	     -4.11885748	     -8.46878393	    -66.36892467	      1.04562838	     -4.64231736	      0.00000000	      0.00000000	      0.00000000	      0.00000000
      1.68000000	     60.49232916	     -0.90263300	     -4.66789619	      0.83077063	      1.06287928	     -0.23088390	     18.73327926	     -6.38299975	      4.22737791	    -13.37731857	     -3.73931481	     10.17040504	      0.00000000	      9.54898145	     -4.11520204	     -8.46636875	    -66.36773553	      1.04055358	     -4.64365656	      0.00000000	      0.00000000	      0.00000000	      0.00000000
      1.69000000	     60.49533320	     -0.90131175	     -4.66647680	      0.83077716	      1.06287899	     -0.23090011	     18.74409431	     -6.38758533	      4.23382558	    -13.34301861	     -3.74213140	     10.17706093	      0.00000000	      9.54554612	     -4.11165518	     -8.46554415	    -66.36655212	      1.03408181	     -4.64140641	      0.00000000	      0.00000000	      0.00000000	      0.00000000
      1.70000000	     60.49763658	     -0.90016883	     -4.66587590	      0.83078275	      1.06287513	     -0.23090947	     18.75493413	     -6.39275983	      4.23806229	    -13.30657937	     -3.74193669	     10.17993305	      0.00000000	      9.54293499	     -4.10819357	     -8.46622952	    -66.36592357	      1.02667574	     -4.63561833	      0.00000000	      0.00000000	      0.00000000	      0.00000000
      1.71000000	     60.49953151	     -0.89885628	     -4.66552686	      0.83078561	      1.06287016	     -0.23091047	     18.76607711	     -6.39903961	      4.24192495	    -13.26620468	     -3.74126130	     10.17831248	      0.00000000	      9.54117177	     -4.10519432	     -8.46782849	    -66.36623116	      1.01896880	     -4.62696679	      0.00000000	      0.00000000	      0.00000000	      0.00000000
      1.72000000	     60.50132519	     -0.89690034	     -4.66479467	      0.83078824	      1.06286623	     -0.23090835	     18.77728996	     -6.40663388	      4.24719189	    -13.22127747	     -3.74336781	     10.17108172	      0.00000000	      9.54036298	     -4.10301943	     -8.46957868	    -66.36763697	      1.01176173	     -4.61669729	      0.00000000	      0.00000000	      0.00000000	      0.00000000
      1.73000000	     60.50332717	     -0.89431025	     -4.66325997	      0.83079277	      1.06286542	     -0.23090724	     18.78827559	     -6.41553057	      4.25480150	    -13.17246108	     -3.75144218	     10.15641596	      0.00000000	      9.54049117	     -4.10167604	     -8.47087948	    -66.37004270	      1.00591167	     -4.60638931	      0.00000000	      0.00000000	      0.00000000	      0.00000000
      1.74000000	     60.50561751	     -0.89177009	     -4.66091817	      0.83079884	      1.06286342	     -0.23090635	     18.79895304	     -6.42564656	      4.26454439	    -13.12150959	     -3.76758542	     10.13232226	      0.00000000	      9.54112306	     -4.10071548	     -8.47146668	    -66.37310184	      1.00214547	     -4.59756424	      0.00000000	      0.00000000	      0.00000000	      0.00000000
      1.75000000	     60.50804776	     -0.89000034	     -4.65819341	      0.83080613	      1.06285338	     -0.23090383	     18.80947357	     -6.43674566	      4.27532050	    -13.07088445	     -3.79185911	     10.09807512	      0.00000000	      9.54145035	     -4.09943326	     -8.47143817	    -66.37630302	      1.00087505	     -4.59127412	      0.00000000	      0.00000000	      0.00000000	      0.00000000
      1.76000000	     60.51061418	     -0.88897564	     -4.65569435	      0.83081414	      1.06283622	     -0.23090045	     18.82017741	     -6.44841084	      4.28577624	    -13.02322039	     -3.82156873	     10.05606907	      0.00000000	      9.54063443	     -4.09719683	     -8.47120449	    -66.37910020	      1.00205832	     -4.58783472	      0.00000000	      0.00000000	      0.00000000	      0.00000000
      1.77000000	     60.51362992	     -0.88792397	     -4.65389668	      0.83082054	      1.06281831	     -0.23089691	     18.83123958	     -6.46044476	      4.29499022	    -12.98097898	     -3.85098203	     10.01331711	      0.00000000	      9.53821415	     -4.09360628	     -8.47136531	    -66.38102248	      1.00514870	     -4.58683151	      0.00000000	      0.00000000	      0.00000000	      0.00000000
      1.78000000	     60.51758154	     -0.88588238	     -4.65301934	      0.83082283	      1.06280272	     -0.23089268	     18.84218717	     -6.47341781	      4.30283622	    -12.94636192	     -3.87162088	      9.98185496	      0.00000000	      9.53428862	     -4.08851625	     -8.47237251	    -66.38173204	      1.00916939	     -4.58743771	      0.00000000	      0.00000000	      0.00000000	      0.00000000
      1.79000000	     60.52287531	     -0.88223462	     -4.65299766	      0.83081973	      1.06279013	     -0.23088899	     18.85184533	     -6.48878690	      4.30980440	    -12.92132520	     -3.87320839	      9.97759705	      0.00000000	      9.52918081	     -4.08194158	     -8.47409666	    -66.38109279	      1.01290261	     -4.58893049	      0.00000000	      0.00000000	      0.00000000	      0.00000000
      1.80000000	     60.52963494	     -0.87703594	     -4.65334025	      0.83081259	      1.06278417	     -0.23088951	     18.85867434	     -6.50842622	      4.31629449	    -12.90780045	     -3.84533199	     10.01761112	      0.00000000	      9.52286295	     -4.07382604	     -8.47570235	    -66.37922086	      1.01512398	     -4.59113738	      0.00000000	      0.00000000	      0.00000000	      0.00000000
      1.81000000	     60.53772249	     -0.87100931	     -4.65305964	      0.83080750	      1.06278906	     -0.23089894	     18.86108631	     -6.53402399	      4.32150907	    -12.90834706	     -3.77967923	     10.11614705	      0.00000000	      9.51476980	     -4.06401743	     -8.47595430	    -66.37638938	      1.01477740	     -4.59453661	      0.00000000	      0.00000000	      0.00000000	      0.00000000
